<svg xmlns="http://www.w3.org/2000/svg" xmlns:xlink="http://www.w3.org/1999/xlink" width="82.468" height="80" viewBox="0 0 82.468 80"><defs><clipPath id="a"><rect width="82.468" height="80" fill="none"/></clipPath></defs><g transform="translate(-50 -40)"><path d="M82.468,0,0,23.547V80L82.468,56.452V0Z" transform="translate(50 40)" fill="#01ead3"/><g transform="translate(50 40)" clip-path="url(#a)"><path d="M67.5,76.4a1.742,1.742,0,0,1-1.79,1.79,1.81,1.81,0,1,1,0-3.618A1.751,1.751,0,0,1,67.5,76.4m-19.425,0a1.742,1.742,0,0,1-1.79,1.79,1.81,1.81,0,1,1,0-3.618,1.751,1.751,0,0,1,1.79,1.828M64.223,91.364h2.895V79.938H64.223Zm-28.3-6.018,4.571,6.018H44l-5.561-7.122V85.8l5.294-5.865H40.266L35.924,85ZM70.2,91.364H73.1V82.413h2.285V79.938H73.1V78.719c0-1.1.457-1.676,1.333-1.676a4.179,4.179,0,0,1,1.371.267V74.758a5.476,5.476,0,0,0-1.866-.3c-2.514,0-3.733,1.828-3.733,4.266v1.219H68.565v2.476H70.2Zm-13.331.381c3.352,0,5.751-2.514,5.751-6.094s-2.323-6.094-5.675-6.094a5.658,5.658,0,0,0-4.228,1.79V79.938H49.826v16.34H52.72V89.993a5.389,5.389,0,0,0,4.152,1.752m25.595-1.524-1.028.038,3.58-10.284H88.1l-6.323,16.34H78.887L81.1,90.755l-.343,2.438L75.726,79.976h3.237ZM33.105,91.364H36V74.758H33.105Zm11.693,0h2.895V79.938H44.8Zm11.388-2.171a3.37,3.37,0,0,1-3.466-3.58,3.466,3.466,0,1,1,6.932,0,3.37,3.37,0,0,1-3.466,3.58M25.221,91.745c3.733,0,6.246-2.019,6.246-5.066,0-2.285-1.371-3.809-3.847-4.456l-2.133-.571c-2.513-.686-3.466-1.371-3.466-2.666,0-1.257,1.143-2.019,2.971-2.019,1.9,0,3.123,1.028,3.237,2.628h2.895c-.191-3.238-2.438-5.142-6.056-5.142-3.428,0-5.9,1.981-5.9,4.723,0,2.324,1.486,3.961,4,4.609l1.942.5c2.514.648,3.5,1.333,3.5,2.666,0,1.447-1.257,2.285-3.314,2.285a3.486,3.486,0,0,1-3.771-3.466H18.594c.114,3.695,2.666,5.98,6.627,5.98" transform="translate(-11.371 -45.529)"/></g></g></svg>